# xmcd
#
# Track frame offsets: 
#        150
#        18001
#        35392
#        51717
#        68512
#        84920
#        99797
#        116409
#        132957
#        148311
#        161881
#        177830
#        203826
#        220969
#        240353
#        261929
#        275859
#        290978
#        303645
#        317151
#
# Disc length: 4422 seconds
#
# Revision: 0
# Processed by: cddbd v1.5.2PL0 Copyright (c) Steve Scherf et al.
# Submitted via: ExactAudioCopy v1.1
#
DISCID=2e114414
DTITLE=Various Artist - Het Beste Uit De MNM 1000 (2018) - CD 4
DYEAR=2018
DGENRE=Top 40
TTITLE0=Lady Gaga - Poker Face
TTITLE1=Faithless - Insomnia
TTITLE2=Marshall Masters - I Like It Loud
TTITLE3=Soulja Boy Tell'em - Crank That (Soulja Boy)
TTITLE4=Post Malone Feat. 21 Savage - Rockstar
TTITLE5=Bazart - Chaos
TTITLE6=Martin Garrix and Dua Lipa - Scared To Be Lonely
TTITLE7=Selena Gomez Feat. A$AP Rocky - Good For You
TTITLE8=DJ Snake Feat. Justin Bieber - Let Me Love You
TTITLE9=Regi - Where Did You Go (Summer Love)
TTITLE10=Lenny Kravitz - Are You Gonna Go My Way
TTITLE11=Thirty Seconds To Mars - Kings And Queens
TTITLE12=Oscar And The Wolf - Breathing
TTITLE13=Calum Scott - Dancing On My Own
TTITLE14=Whitney Houston - I Wanna Dance With Somebody
TTITLE15=Disciples - On My Mind
TTITLE16=Nicki Minaj - Super Bass
TTITLE17=Martin Solveig Feat. Alma - All Stars
TTITLE18=Henri PFR Feat. Raphaella - Until The End
TTITLE19=Shania Twain - You're Still The One
EXTD=
EXTT0=
EXTT1=
EXTT2=
EXTT3=
EXTT4=
EXTT5=
EXTT6=
EXTT7=
EXTT8=
EXTT9=
EXTT10=
EXTT11=
EXTT12=
EXTT13=
EXTT14=
EXTT15=
EXTT16=
EXTT17=
EXTT18=
EXTT19=
PLAYORDER=
